# xmcd
#
# Track frame offsets: 
#        182
#        14377
#        27945
#        41115
#        53232
#        66647
#        81262
#        93957
#        106947
#        119815
#        133137
#        145300
#        158037
#        170935
#        181490
#        196530
#        208877
#        221202
#        233427
#        244927
#
# Disc length: 3442 seconds
#
# Revision: 4
# Processed by: cddbd v1.4PL0 Copyright (c) Steve Scherf et al.
# Submitted via: ExactAudioCopy v0.90b3
#
DISCID=300d7014
DTITLE=Muddy Waters - Hoochie Coochie Man
DYEAR=1993
DGENRE=Blues
TTITLE0=Rolling Stone
TTITLE1=Rollin' And Tumblin' Pt. 1
TTITLE2=Louisiana Blues
TTITLE3=Long Distance Call
TTITLE4=She Moves Me
TTITLE5=Still A Fool
TTITLE6=Baby Please Don't Go
TTITLE7=Hoochie Coochie Man
TTITLE8=I Just Want To Make Love To You
TTITLE9=Mannish Boy
TTITLE10=Trouble No More
TTITLE11=I Love The Life I Live, I Live The Life I Love
TTITLE12=Got My Mojo Working
TTITLE13=Evil
TTITLE14=She's Nineteen Years Old
TTITLE15=Walkin' Thru The Park
TTITLE16=She's Into Something
TTITLE17=You Shook Me
TTITLE18=Twenty Four Hours
TTITLE19=You Can't Lose What You Ain't Ever Had
EXTD=
EXTT0=
EXTT1=
EXTT2=
EXTT3=
EXTT4=
EXTT5=
EXTT6=
EXTT7=
EXTT8=
EXTT9=
EXTT10=
EXTT11=
EXTT12=
EXTT13=
EXTT14=
EXTT15=
EXTT16=
EXTT17=
EXTT18=
EXTT19=
PLAYORDER=
